<?xml version="1.0" encoding="utf-8"?>
<!-- Generator: Adobe Illustrator 16.0.0, SVG Export Plug-In . SVG Version: 6.00 Build 0)  -->
<!DOCTYPE svg PUBLIC "-//W3C//DTD SVG 1.1//EN" "http://www.w3.org/Graphics/SVG/1.1/DTD/svg11.dtd">
<svg version="1.1" id="Layer_1" xmlns="http://www.w3.org/2000/svg" xmlns:xlink="http://www.w3.org/1999/xlink" x="0px" y="0px"
	 width="100%" height="100%" viewBox="0 0 612 612" enable-background="new 0 0 612 612" xml:space="preserve">
<g>
	<g>
		<defs>
			<rect id="SVGID_1_" width="612" height="612"/>
		</defs>
		<clipPath id="SVGID_2_">
			<use xlink:href="#SVGID_1_"  overflow="visible"/>
		</clipPath>
		<rect x="272.063" y="53.435" clip-path="url(#SVGID_2_)" fill="#FFFFFF" width="75.987" height="462.189"/>
		<rect x="347.729" y="53.435" clip-path="url(#SVGID_2_)" fill="#CF0A2C" width="75.984" height="462.189"/>
		<rect x="196.073" y="53.435" clip-path="url(#SVGID_2_)" fill="#007934" width="75.99" height="462.189"/>
		<g clip-path="url(#SVGID_2_)">
			<defs>
				<rect id="SVGID_3_" width="612" height="612"/>
			</defs>
			<clipPath id="SVGID_4_">
				<use xlink:href="#SVGID_3_"  overflow="visible"/>
			</clipPath>
			<path clip-path="url(#SVGID_4_)" d="M521.686,284.529c0,62.766-94.822,113.649-211.793,113.649
				c-116.968,0-211.79-50.883-211.79-113.649s94.822-113.65,211.79-113.65C426.863,170.879,521.686,221.763,521.686,284.529"/>
			<path clip-path="url(#SVGID_4_)" fill="#FFFFFF" d="M203.024,296.1c4.489,0,8.066,1.414,10.733,4.246
				c2.474,2.703,3.71,6.148,3.71,10.343v8.889c0,4.032-1.407,7.477-4.221,10.341c-2.814,2.859-6.222,4.296-10.223,4.296h-5.318
				v23.032h-9.225V296.1H203.024z M208.541,310.838c0-1.592-0.479-2.879-1.442-3.854c-0.96-0.975-2.239-1.465-3.831-1.465h-5.562
				v19.571h5.562c1.463,0,2.708-0.521,3.731-1.563c1.027-1.042,1.542-2.295,1.542-3.756V310.838z"/>
			<rect x="224.835" y="296.102" clip-path="url(#SVGID_4_)" fill="#FFFFFF" width="9.222" height="61.146"/>
			<polygon clip-path="url(#SVGID_4_)" fill="#FFFFFF" points="268.655,296.102 268.655,305.375 251.671,348.072 268.655,348.072 
				268.655,357.245 241.719,357.245 241.719,348.015 258.75,305.323 241.719,305.375 241.719,296.102 			"/>
			<polygon clip-path="url(#SVGID_4_)" fill="#FFFFFF" points="301.937,296.102 301.937,305.375 284.958,348.072 301.937,348.072 
				301.937,357.245 275.003,357.245 275.003,348.015 292.03,305.323 275.003,305.375 275.003,296.102 			"/>
			<polygon clip-path="url(#SVGID_4_)" fill="#FFFFFF" points="309.601,357.247 309.601,296.049 335.854,296.049 335.854,305.325 
				318.818,305.325 318.818,322.014 331.264,322.014 331.264,331.288 318.818,331.288 318.818,347.981 335.854,347.981 
				335.854,357.247 			"/>
			<path clip-path="url(#SVGID_4_)" fill="#FFFFFF" d="M356.738,296.1c5.139,0,8.913,1.414,11.322,4.246
				c2.115,2.472,3.173,5.923,3.173,10.343v8.889c0,4.322-1.642,7.983-4.929,10.976l6.828,26.693h-9.972l-5.593-23.032h-0.83h-5.32
				v23.032h-9.223V296.1H356.738z M362.254,310.838c0-3.543-1.757-5.319-5.276-5.319h-5.56v19.571h5.56
				c1.467,0,2.712-0.521,3.741-1.563c1.023-1.042,1.535-2.295,1.535-3.756V310.838z"/>
			<rect x="381.035" y="296.102" clip-path="url(#SVGID_4_)" fill="#FFFFFF" width="9.227" height="61.146"/>
			<path clip-path="url(#SVGID_4_)" fill="#FFFFFF" d="M409.818,343.193l-2.237,14.052h-9.61l10.395-61.144h12.688l10.252,61.144
				h-9.697l-2.16-14.052H409.818z M414.657,310.109l-3.411,24.105h6.831L414.657,310.109z"/>
			<path clip-path="url(#SVGID_4_)" fill="#FFFFFF" d="M251.8,250.391c-1.025-6.248-1.967-10.445-2.822-12.594
				c-0.421-1.545-1.025-2.321-1.81-2.321h-0.506c-0.457,0-1.293,0.376-2.518,1.116c-0.807,0-1.646,0.937-2.517,2.819
				c-2.05,5.736-3.627,9.063-4.736,9.968l-0.102-2.717v-0.505c0-8.542,0.538-16.503,1.612-23.873c0-0.285-0.57-0.722-1.712-1.309
				h-0.199c0,0.404-0.105,0.603-0.305,0.603c-0.332,0-0.808-0.165-1.407-0.505v0.104c-0.322,0.809-0.926,1.21-1.816,1.21
				c-0.587,1.949-1.058,5.706-1.413,11.282c-0.149,14.837-0.315,22.259-0.498,22.259c0.6,1.666,0.905,2.976,0.905,3.929
				l-0.104,1.005l1.008,0.505c1.058,1.144,1.93,1.711,2.619,1.711h0.706c1.328-1.31,2.602-3.186,3.831-5.64
				c2.179-5.474,3.758-8.829,4.731-10.072l1.61,7.555c0.722,2.367,1.627,4.216,2.718,5.54c1.968,1.679,3.645,2.518,5.039,2.518
				c0.938-0.436,1.847-1.277,2.718-2.518v-0.101c-1.158-1.058-2.03-2.095-2.619-3.121
				C253.344,255.691,252.537,253.408,251.8,250.391 M308.005,259c-0.741-2.784-1.812-8.962-3.223-18.535
				c-0.639-2.837-1.446-5.389-2.417-7.652c0-0.187-1.075-0.556-3.225-1.113c-1.444,0-3.088,1.313-4.935,3.929
				c-1.125,2.083-2.333,3.729-3.624,4.938h-0.104l-0.104-0.102l0.305-0.905c0-0.371-1.243-0.74-3.729-1.109
				c-0.266,0-0.403,0.167-0.403,0.503c-0.045,0.17-0.786,0.673-2.214,1.511c0,8.447-0.471,14.354-1.409,17.731l1.21,2.114
				c0,0.606,0.299,0.901,0.905,0.901h1.508c0.673,0.072,1.009,0.206,1.009,0.408c0.151-0.019,0.893-1.399,2.216-4.129
				c3.223-8.26,6.01-13.834,8.361-16.724h0.102l2.217,13.3c0.639,3.051,1.44,5.572,2.415,7.553c0,0.805,1.075,1.208,3.225,1.208
				h0.201c1.478,0,2.214-0.57,2.214-1.712v-0.2C308.339,259.639,308.171,259,308.005,259 M281.944,259
				c-0.739-2.784-1.818-8.962-3.229-18.535c-0.635-2.837-1.44-5.389-2.416-7.652c0-0.187-1.073-0.556-3.223-1.113
				c-1.446,0-3.088,1.313-4.935,3.929c-1.126,2.083-2.334,3.729-3.625,4.938h-0.1l-0.105-0.102l0.301-0.905
				c0-0.371-1.241-0.74-3.723-1.109c-0.27,0-0.403,0.167-0.403,0.503c-0.052,0.17-0.789,0.673-2.214,1.511
				c0,8.447-0.471,14.354-1.411,17.731l1.206,2.114c0,0.606,0.305,0.901,0.904,0.901h1.515c0.672,0.072,1.004,0.206,1.004,0.408
				c0.153-0.019,0.89-1.399,2.221-4.129c3.221-8.26,6.01-13.834,8.354-16.724h0.1l2.221,13.3c0.639,3.051,1.444,5.572,2.419,7.553
				c0,0.805,1.073,1.208,3.221,1.208h0.199c1.482,0,2.216-0.57,2.216-1.712v-0.2C282.276,259.639,282.11,259,281.944,259
				 M222.764,239.284h-0.1c-2.704,0-4.599,0.351-5.69,1.056c-0.942,1.275-1.565,2.021-1.864,2.242
				c-1.478,0.635-2.312,1.081-2.492,1.332c-0.892,2.62-1.336,5.5-1.336,8.638v0.531c0,1.192,0.176,2.405,0.527,3.646
				c1.494,4.574,4.02,6.852,7.581,6.852h0.349c1.581,0,3.362-0.595,5.342-1.785c3.629-2.922,5.441-6.774,5.441-11.562v-0.902
				c0-1.397-0.187-2.636-0.558-3.729C228.622,241.392,226.221,239.284,222.764,239.284 M224.098,249.96
				c0,1.311-0.353,2.641-1.056,4.005c-0.89,1.575-2.05,2.678-3.474,3.293c-1.011,0-1.606-1.365-1.789-4.103l0.179-4.781
				l-0.079-0.805c0.166-0.056,0.485-0.353,0.959-0.908c0.921-1.411,1.938-2.117,3.044-2.117c1.476,1.363,2.216,3.048,2.216,5.061
				V249.96z M207.125,213.118c-1.257-0.875-2.365-1.308-3.324-1.308h-0.602c-1.411,0.284-2.117,1.594-2.117,3.924l0.202,2.822
				c2.015,10.309,3.023,18.267,3.023,23.87c0,9.625-1.345,15.806-4.03,18.539l-3.225-2.62c-4.229-4.38-7.587-9.919-10.069-16.625
				c0.734-0.966,1.104-1.805,1.104-2.511l-0.201-1.109c-1.276-2.487-3.088-3.728-5.439-3.728h-0.907c-1.409,0-2.11,1.275-2.11,3.826
				v0.706c0,3.206,1.946,8.245,5.84,15.108c1.913,3.458,3.693,6.114,5.337,7.962c3.071,4.095,6.228,6.144,9.467,6.144h0.805
				c2.669,0,4.922-1.717,6.75-5.14c2.082-5.101,3.124-11.381,3.124-18.834c0-2.32-0.202-5.642-0.606-9.975L207.125,213.118z
				 M333.513,256.433v-0.808c0-5.188-0.336-14.119-1.009-26.795c-0.585-0.805-1.356-1.207-2.315-1.207h-2.214
				c-0.559,0.922-1.229,1.729-2.018,2.415v0.203c0,1.227-0.135,2.299-0.404,3.224c0,1.679-1.845,5.945-5.541,12.794
				c-0.519,1.477-0.917,2.214-1.203,2.214c-1.731,2.146-3.041,3.224-3.929,3.224h-0.306l-0.104-1.715
				c0-1.963,0.206-3.708,0.61-5.236c1.341-5.306,2.015-8.766,2.015-10.375v-0.303c-1.01-0.871-1.882-1.312-2.625-1.312h-0.701
				c-0.94,0-1.812,0.808-2.615,2.423c-1.614,5.654-2.419,10.591-2.419,14.803c0,1.662,0.17,3.311,0.506,4.937
				c0.938,2.821,1.942,4.232,3.018,4.232h0.404c1.833,0,3.239-0.237,4.228-0.706c0.876,0,2.387-1.143,4.536-3.425
				c2.333-3.81,4.074-6.361,5.238-7.657c1.274,6.647,1.911,12.791,1.911,18.432c0,3.459-0.164,6.18-0.504,8.161
				c-0.656,3.761-2.034,5.642-4.13,5.642h-0.201c-0.468,0-1.04-0.136-1.712-0.404l-4.836-2.92c-0.975-0.068-1.577-0.205-1.817-0.404
				c-2.055-1.611-3.437-2.417-4.124-2.417c-0.89,0-1.729,0.402-2.517,1.205c0,1.212,0.535,2.521,1.61,3.932
				c4.395,5.103,8.732,7.652,12.99,7.652c1.158,0,2.3-0.199,3.429-0.601c5.154-2.214,7.773-6.648,7.86-13.297l-0.105-1.612
				L333.513,256.433z M437.211,250.338c-2.25-1.06-5.904-2.192-10.955-3.4c-2.918-0.82-4.742-1.815-5.46-2.969
				c0-0.558,2.424-1.211,7.275-1.967c1.594-0.399,2.632-0.973,3.123-1.713c0-0.268-0.238-1.014-0.708-2.242
				c-0.251-1.191-1.598-1.787-4.025-1.787h-0.836c-1.824,0-3.8,0.506-5.917,1.511c-4.243,1.831-6.364,4.469-6.364,7.908v0.353
				c0,2.182,2.542,4.037,7.626,5.565c5.034,1.162,8.513,2.265,10.424,3.323v0.102c-1.222,1.139-2.812,1.708-4.759,1.708
				c-2.357,0-5.291-0.836-8.809-2.515c-1.38,1.075-2.073,2.241-2.073,3.5v0.531c0,0.907,0.332,1.712,0.987,2.416
				c0,1.024,3.109,1.747,9.345,2.167c1.542,0,3.215-0.15,5.035-0.455c6.161-1.175,9.24-3.506,9.24-7
				C440.36,253.294,439.307,251.611,437.211,250.338 M393.598,239.284h-0.105c-2.699,0-4.595,0.351-5.688,1.056
				c-0.94,1.275-1.561,2.021-1.859,2.242c-1.484,0.635-2.313,1.081-2.495,1.332c-0.888,2.62-1.336,5.5-1.336,8.638v0.531
				c0,1.192,0.174,2.405,0.531,3.646c1.494,4.574,4.021,6.852,7.58,6.852h0.351c1.578,0,3.36-0.595,5.338-1.785
				c3.621-2.922,5.441-6.774,5.441-11.562v-0.902c0-1.397-0.188-2.636-0.561-3.729C399.454,241.392,397.054,239.284,393.598,239.284
				 M394.931,249.96c0,1.311-0.357,2.641-1.059,4.005c-0.888,1.575-2.046,2.678-3.478,3.293c-1.005,0-1.601-1.365-1.787-4.103
				l0.172-4.781l-0.068-0.805c0.17-0.056,0.488-0.353,0.959-0.908c0.924-1.411,1.936-2.117,3.046-2.117
				c1.478,1.363,2.215,3.048,2.215,5.061V249.96z M377.964,213.118c-1.262-0.875-2.374-1.308-3.329-1.308h-0.607
				c-1.407,0.284-2.111,1.594-2.111,3.924l0.199,2.822c2.018,10.309,3.021,18.267,3.021,23.87c0,9.625-1.344,15.806-4.031,18.539
				l-3.215-2.62c-4.231-4.38-7.593-9.919-10.077-16.625c0.739-0.966,1.104-1.805,1.104-2.511l-0.199-1.109
				c-1.272-2.487-3.084-3.728-5.441-3.728h-0.905c-1.411,0-2.112,1.275-2.112,3.826v0.706c0,3.206,1.946,8.245,5.84,15.108
				c1.911,3.458,3.689,6.114,5.337,7.962c3.075,4.095,6.234,6.144,9.472,6.144h0.805c2.671,0,4.918-1.717,6.747-5.14
				c2.085-5.101,3.127-11.381,3.127-18.834c0-2.32-0.205-5.642-0.61-9.975L377.964,213.118z M409.374,219.629h-0.363
				c-1.754,0-3.062,0.821-3.927,2.459c0.234,1.817,0.393,4.22,0.451,7.212l-0.094,2.557c0.081,3.488,0.234,5.437,0.461,5.858
				c0.637,0,1.371-0.185,2.193-0.552c2.254-1.46,3.376-4.874,3.376-10.23v-1.274l-0.093-4.558
				C411.379,220.118,410.706,219.629,409.374,219.629"/>
		</g>
	</g>
</g>
</svg>
